<svg xmlns="http://www.w3.org/2000/svg" xmlns:xlink="http://www.w3.org/1999/xlink" width="500" zoomAndPan="magnify" viewBox="0 0 375 374.999991" height="500" preserveAspectRatio="xMidYMid meet" version="1.0"><defs><g/><clipPath id="332b22587a"><path d="M 136.425781 179.367188 L 148.835938 179.367188 L 148.835938 191.773438 L 136.425781 191.773438 Z M 136.425781 179.367188 " clip-rule="nonzero"/></clipPath><clipPath id="07ed74b035"><path d="M 142.632812 179.367188 C 139.203125 179.367188 136.425781 182.144531 136.425781 185.570312 C 136.425781 188.996094 139.203125 191.773438 142.632812 191.773438 C 146.058594 191.773438 148.835938 188.996094 148.835938 185.570312 C 148.835938 182.144531 146.058594 179.367188 142.632812 179.367188 Z M 142.632812 179.367188 " clip-rule="nonzero"/></clipPath></defs><rect x="-37.5" width="450" fill="#ffffff" y="-37.499999" height="449.999989" fill-opacity="1"/><rect x="-37.5" width="450" fill="#ffffff" y="-37.499999" height="449.999989" fill-opacity="1"/><g fill="#000000" fill-opacity="1"><g transform="translate(106.350072, 292.851509)"><g><path d="M 21.546875 -0.25 L 21.921875 -0.25 L 21.921875 0 L 16.6875 0 L 16.6875 -0.21875 L 17.0625 -0.21875 C 17.3125 -0.21875 17.53125 -0.316406 17.71875 -0.515625 C 17.914062 -0.710938 18 -0.941406 17.96875 -1.203125 L 16.65625 -11.578125 L 11.90625 -2.21875 C 11.4375 -1.1875 11.144531 -0.328125 11.03125 0.359375 L 10.78125 0.359375 L 4.703125 -11.359375 L 3.578125 -1.203125 C 3.546875 -0.953125 3.625 -0.722656 3.8125 -0.515625 C 4.007812 -0.316406 4.238281 -0.21875 4.5 -0.21875 L 4.859375 -0.21875 L 4.859375 0 L 0.203125 0 L 0.203125 -0.25 L 0.578125 -0.25 C 1.179688 -0.25 1.648438 -0.46875 1.984375 -0.90625 C 2.148438 -1.125 2.253906 -1.382812 2.296875 -1.6875 L 4.25 -15.453125 L 4.5 -15.453125 L 11.15625 -2.671875 L 17.5625 -15.453125 L 17.796875 -15.453125 L 19.828125 -1.640625 C 19.898438 -1.210938 20.09375 -0.875 20.40625 -0.625 C 20.726562 -0.375 21.109375 -0.25 21.546875 -0.25 Z M 21.546875 -0.25 "/></g></g></g><g fill="#000000" fill-opacity="1"><g transform="translate(128.45331, 292.851509)"><g><path d="M 3.0625 -0.21875 C 2.851562 -0.0078125 2.585938 0.09375 2.265625 0.09375 C 1.941406 0.09375 1.671875 -0.0078125 1.453125 -0.21875 C 1.234375 -0.4375 1.125 -0.707031 1.125 -1.03125 C 1.125 -1.351562 1.234375 -1.625 1.453125 -1.84375 C 1.671875 -2.0625 1.941406 -2.171875 2.265625 -2.171875 C 2.585938 -2.171875 2.851562 -2.0625 3.0625 -1.84375 C 3.28125 -1.625 3.390625 -1.351562 3.390625 -1.03125 C 3.390625 -0.707031 3.28125 -0.4375 3.0625 -0.21875 Z M 3.0625 -0.21875 "/></g></g></g><g fill="#000000" fill-opacity="1"><g transform="translate(132.959549, 292.851509)"><g><path d="M 18.03125 -0.25 L 18.234375 -0.25 L 18.234375 0 L 12.5625 0 L 12.5625 -0.25 L 12.796875 -0.25 C 13.148438 -0.25 13.410156 -0.363281 13.578125 -0.59375 C 13.753906 -0.820312 13.84375 -1.035156 13.84375 -1.234375 C 13.84375 -1.429688 13.8125 -1.632812 13.75 -1.84375 L 12.140625 -6.109375 L 5.34375 -6.109375 L 3.65625 -1.8125 C 3.59375 -1.613281 3.5625 -1.414062 3.5625 -1.21875 C 3.5625 -1.03125 3.644531 -0.820312 3.8125 -0.59375 C 3.988281 -0.363281 4.253906 -0.25 4.609375 -0.25 L 4.84375 -0.25 L 4.84375 0 L -0.21875 0 L -0.21875 -0.25 L 0 -0.25 C 0.425781 -0.25 0.835938 -0.382812 1.234375 -0.65625 C 1.640625 -0.925781 1.96875 -1.320312 2.21875 -1.84375 L 7.90625 -15.375 C 8.53125 -16.738281 8.84375 -17.601562 8.84375 -17.96875 L 9.0625 -17.96875 L 15.8125 -1.84375 C 16.050781 -1.320312 16.367188 -0.925781 16.765625 -0.65625 C 17.171875 -0.382812 17.59375 -0.25 18.03125 -0.25 Z M 5.640625 -6.875 L 11.84375 -6.875 L 8.8125 -14.953125 Z M 5.640625 -6.875 "/></g></g></g><g fill="#000000" fill-opacity="1"><g transform="translate(150.883812, 292.851509)"><g><path d="M 6.703125 -16.84375 L 5.078125 -16.84375 L 5.078125 -1.84375 C 5.078125 -1.40625 5.234375 -1.03125 5.546875 -0.71875 C 5.859375 -0.40625 6.242188 -0.25 6.703125 -0.25 L 7 -0.25 L 7.015625 0 L 1.515625 0 L 1.515625 -0.25 L 1.84375 -0.25 C 2.269531 -0.25 2.640625 -0.398438 2.953125 -0.703125 C 3.265625 -1.003906 3.429688 -1.375 3.453125 -1.8125 L 3.453125 -15.78125 C 3.429688 -16.21875 3.265625 -16.59375 2.953125 -16.90625 C 2.640625 -17.21875 2.269531 -17.375 1.84375 -17.375 L 1.515625 -17.375 L 1.515625 -17.625 L 8.3125 -17.625 C 9.832031 -17.625 11.03125 -17.195312 11.90625 -16.34375 C 12.78125 -15.5 13.21875 -14.398438 13.21875 -13.046875 C 13.21875 -11.703125 12.800781 -10.535156 11.96875 -9.546875 C 11.132812 -8.566406 10.125 -8.078125 8.9375 -8.078125 C 9.1875 -7.960938 9.484375 -7.734375 9.828125 -7.390625 C 10.171875 -7.046875 10.476562 -6.6875 10.75 -6.3125 C 12.1875 -4.25 13.125 -2.976562 13.5625 -2.5 C 14 -2.019531 14.3125 -1.691406 14.5 -1.515625 C 14.6875 -1.347656 14.890625 -1.175781 15.109375 -1 C 15.328125 -0.832031 15.539062 -0.703125 15.75 -0.609375 C 16.238281 -0.367188 16.757812 -0.25 17.3125 -0.25 L 17.3125 0 L 15.9375 0 C 15.207031 0 14.53125 -0.128906 13.90625 -0.390625 C 13.289062 -0.648438 12.828125 -0.914062 12.515625 -1.1875 C 12.210938 -1.46875 11.945312 -1.738281 11.71875 -2 C 11.488281 -2.257812 10.863281 -3.128906 9.84375 -4.609375 C 8.820312 -6.085938 8.222656 -6.929688 8.046875 -7.140625 C 7.878906 -7.347656 7.707031 -7.550781 7.53125 -7.75 C 6.988281 -8.320312 6.453125 -8.609375 5.921875 -8.609375 L 5.921875 -8.859375 C 6.046875 -8.835938 6.21875 -8.828125 6.4375 -8.828125 C 6.65625 -8.828125 6.925781 -8.835938 7.25 -8.859375 C 9.332031 -8.910156 10.640625 -9.785156 11.171875 -11.484375 C 11.273438 -11.816406 11.328125 -12.128906 11.328125 -12.421875 C 11.328125 -12.710938 11.328125 -12.898438 11.328125 -12.984375 C 11.296875 -14.109375 11 -15.015625 10.4375 -15.703125 C 9.882812 -16.390625 9.140625 -16.757812 8.203125 -16.8125 C 7.804688 -16.832031 7.304688 -16.84375 6.703125 -16.84375 Z M 6.703125 -16.84375 "/></g></g></g><g fill="#000000" fill-opacity="1"><g transform="translate(167.926971, 292.851509)"><g><path d="M 1.84375 -0.25 C 2.269531 -0.25 2.640625 -0.40625 2.953125 -0.71875 C 3.265625 -1.03125 3.429688 -1.40625 3.453125 -1.84375 L 3.453125 -15.8125 C 3.429688 -16.25 3.265625 -16.617188 2.953125 -16.921875 C 2.640625 -17.222656 2.269531 -17.375 1.84375 -17.375 L 1.515625 -17.375 L 1.515625 -17.625 L 7.015625 -17.625 L 7.015625 -17.375 L 6.703125 -17.375 C 6.265625 -17.375 5.890625 -17.222656 5.578125 -16.921875 C 5.265625 -16.617188 5.097656 -16.25 5.078125 -15.8125 L 5.078125 -1.84375 C 5.078125 -1.40625 5.238281 -1.03125 5.5625 -0.71875 C 5.882812 -0.40625 6.265625 -0.25 6.703125 -0.25 L 7.015625 -0.25 L 7.015625 0 L 1.515625 0 L 1.515625 -0.25 Z M 1.84375 -0.25 "/></g></g></g><g fill="#000000" fill-opacity="1"><g transform="translate(176.435959, 292.851509)"><g><path d="M 11.875 -17.34375 L 11.875 -15.234375 L 11.625 -15.234375 L 11.625 -15.609375 C 11.625 -15.941406 11.503906 -16.226562 11.265625 -16.46875 C 11.035156 -16.71875 10.742188 -16.84375 10.390625 -16.84375 L 5.078125 -16.84375 L 5.078125 -9.0625 L 9.34375 -9.0625 C 9.675781 -9.082031 9.957031 -9.207031 10.1875 -9.4375 C 10.425781 -9.675781 10.546875 -9.960938 10.546875 -10.296875 L 10.546875 -10.671875 L 10.796875 -10.671875 L 10.796875 -6.703125 L 10.546875 -6.703125 L 10.546875 -7.078125 C 10.546875 -7.410156 10.429688 -7.691406 10.203125 -7.921875 C 9.984375 -8.160156 9.703125 -8.289062 9.359375 -8.3125 L 5.078125 -8.3125 L 5.078125 -1.84375 C 5.078125 -1.40625 5.238281 -1.03125 5.5625 -0.71875 C 5.882812 -0.40625 6.265625 -0.25 6.703125 -0.25 L 7.015625 -0.25 L 7.015625 0 L 1.515625 0 L 1.515625 -0.25 L 1.84375 -0.25 C 2.269531 -0.25 2.640625 -0.40625 2.953125 -0.71875 C 3.265625 -1.03125 3.429688 -1.40625 3.453125 -1.84375 L 3.453125 -15.9375 C 3.453125 -16.332031 3.285156 -16.671875 2.953125 -16.953125 C 2.628906 -17.234375 2.257812 -17.375 1.84375 -17.375 L 1.53125 -17.375 L 1.515625 -17.625 L 8.890625 -17.625 C 9.410156 -17.625 9.972656 -17.671875 10.578125 -17.765625 C 11.191406 -17.867188 11.625 -17.972656 11.875 -18.078125 Z M 11.875 -17.34375 "/></g></g></g><g fill="#000000" fill-opacity="1"><g transform="translate(190.055377, 292.851509)"><g/></g></g><g fill="#000000" fill-opacity="1"><g transform="translate(196.349013, 292.851509)"><g><path d="M 6.5625 -14.84375 C 5.945312 -14.84375 5.476562 -14.617188 5.15625 -14.171875 C 5.019531 -13.972656 4.945312 -13.742188 4.9375 -13.484375 L 4.9375 0 C 4.9375 1.226562 4.476562 2.28125 3.5625 3.15625 C 2.644531 4.039062 1.566406 4.484375 0.328125 4.484375 L 0.328125 4.234375 C 1.148438 3.972656 1.851562 3.429688 2.4375 2.609375 C 3.03125 1.796875 3.328125 0.925781 3.328125 0 L 3.328125 -13.59375 C 3.285156 -13.945312 3.109375 -14.242188 2.796875 -14.484375 C 2.492188 -14.722656 2.125 -14.84375 1.6875 -14.84375 L 1.390625 -14.84375 L 1.359375 -15.109375 L 6.890625 -15.109375 L 6.890625 -14.84375 Z M 6.5625 -14.84375 "/></g></g></g><g fill="#000000" fill-opacity="1"><g transform="translate(204.127942, 292.851509)"><g><path d="M 18.03125 -0.25 L 18.234375 -0.25 L 18.234375 0 L 12.5625 0 L 12.5625 -0.25 L 12.796875 -0.25 C 13.148438 -0.25 13.410156 -0.363281 13.578125 -0.59375 C 13.753906 -0.820312 13.84375 -1.035156 13.84375 -1.234375 C 13.84375 -1.429688 13.8125 -1.632812 13.75 -1.84375 L 12.140625 -6.109375 L 5.34375 -6.109375 L 3.65625 -1.8125 C 3.59375 -1.613281 3.5625 -1.414062 3.5625 -1.21875 C 3.5625 -1.03125 3.644531 -0.820312 3.8125 -0.59375 C 3.988281 -0.363281 4.253906 -0.25 4.609375 -0.25 L 4.84375 -0.25 L 4.84375 0 L -0.21875 0 L -0.21875 -0.25 L 0 -0.25 C 0.425781 -0.25 0.835938 -0.382812 1.234375 -0.65625 C 1.640625 -0.925781 1.96875 -1.320312 2.21875 -1.84375 L 7.90625 -15.375 C 8.53125 -16.738281 8.84375 -17.601562 8.84375 -17.96875 L 9.0625 -17.96875 L 15.8125 -1.84375 C 16.050781 -1.320312 16.367188 -0.925781 16.765625 -0.65625 C 17.171875 -0.382812 17.59375 -0.25 18.03125 -0.25 Z M 5.640625 -6.875 L 11.84375 -6.875 L 8.8125 -14.953125 Z M 5.640625 -6.875 "/></g></g></g><g fill="#000000" fill-opacity="1"><g transform="translate(222.052205, 292.851509)"><g><path d="M 22.65625 -0.25 L 23.0625 -0.25 L 23.0625 0 L 17.59375 0 L 17.59375 -0.21875 L 17.96875 -0.21875 C 18.257812 -0.21875 18.503906 -0.332031 18.703125 -0.5625 C 18.898438 -0.789062 18.984375 -1.039062 18.953125 -1.3125 L 17.828125 -13.96875 L 12.53125 -2.21875 C 12.0625 -1.1875 11.78125 -0.328125 11.6875 0.359375 L 11.421875 0.359375 L 4.984375 -13.625 L 3.90625 -1.3125 C 3.863281 -1.039062 3.941406 -0.789062 4.140625 -0.5625 C 4.347656 -0.332031 4.585938 -0.21875 4.859375 -0.21875 L 5.265625 -0.21875 L 5.265625 0 L 0.375 0 L 0.375 -0.25 L 0.78125 -0.25 C 1.25 -0.25 1.65625 -0.390625 2 -0.671875 C 2.34375 -0.960938 2.550781 -1.351562 2.625 -1.84375 L 4.5 -17.96875 L 4.75 -17.96875 L 11.78125 -2.796875 L 18.65625 -17.96875 L 18.875 -17.96875 L 20.8125 -1.84375 C 20.894531 -1.164062 21.234375 -0.691406 21.828125 -0.421875 C 22.078125 -0.304688 22.351562 -0.25 22.65625 -0.25 Z M 22.65625 -0.25 "/></g></g></g><g fill="#000000" fill-opacity="1"><g transform="translate(245.4897, 292.851509)"><g><path d="M 18.03125 -0.25 L 18.234375 -0.25 L 18.234375 0 L 12.5625 0 L 12.5625 -0.25 L 12.796875 -0.25 C 13.148438 -0.25 13.410156 -0.363281 13.578125 -0.59375 C 13.753906 -0.820312 13.84375 -1.035156 13.84375 -1.234375 C 13.84375 -1.429688 13.8125 -1.632812 13.75 -1.84375 L 12.140625 -6.109375 L 5.34375 -6.109375 L 3.65625 -1.8125 C 3.59375 -1.613281 3.5625 -1.414062 3.5625 -1.21875 C 3.5625 -1.03125 3.644531 -0.820312 3.8125 -0.59375 C 3.988281 -0.363281 4.253906 -0.25 4.609375 -0.25 L 4.84375 -0.25 L 4.84375 0 L -0.21875 0 L -0.21875 -0.25 L 0 -0.25 C 0.425781 -0.25 0.835938 -0.382812 1.234375 -0.65625 C 1.640625 -0.925781 1.96875 -1.320312 2.21875 -1.84375 L 7.90625 -15.375 C 8.53125 -16.738281 8.84375 -17.601562 8.84375 -17.96875 L 9.0625 -17.96875 L 15.8125 -1.84375 C 16.050781 -1.320312 16.367188 -0.925781 16.765625 -0.65625 C 17.171875 -0.382812 17.59375 -0.25 18.03125 -0.25 Z M 5.640625 -6.875 L 11.84375 -6.875 L 8.8125 -14.953125 Z M 5.640625 -6.875 "/></g></g></g><g fill="#000000" fill-opacity="1"><g transform="translate(263.413955, 292.851509)"><g><path d="M 1.84375 -0.25 C 2.269531 -0.25 2.640625 -0.40625 2.953125 -0.71875 C 3.265625 -1.03125 3.429688 -1.40625 3.453125 -1.84375 L 3.453125 -15.78125 C 3.429688 -16.21875 3.265625 -16.59375 2.953125 -16.90625 C 2.640625 -17.21875 2.269531 -17.375 1.84375 -17.375 L 1.515625 -17.375 L 1.515625 -17.625 L 7.015625 -17.625 L 7.015625 -17.375 L 6.703125 -17.375 C 6.097656 -17.375 5.632812 -17.113281 5.3125 -16.59375 C 5.15625 -16.332031 5.078125 -16.0625 5.078125 -15.78125 L 5.078125 -0.78125 L 8.6875 -0.78125 C 9.925781 -0.78125 10.875 -1.054688 11.53125 -1.609375 C 12.1875 -2.160156 12.734375 -2.984375 13.171875 -4.078125 L 13.421875 -4.078125 L 11.953125 0 L 1.515625 0 L 1.515625 -0.25 Z M 1.84375 -0.25 "/></g></g></g><g fill="#000000" fill-opacity="1"><g transform="translate(277.563702, 292.851509)"><g/></g></g><g fill="#000000" fill-opacity="1"><g transform="translate(134.450122, 222.51523)"><g><path d="M 161.859375 29.03125 C 157.078125 30.28125 152.835938 30.90625 149.140625 30.90625 C 145.441406 30.90625 142.164062 30.675781 139.3125 30.21875 C 136.46875 29.757812 133.421875 28.875 130.171875 27.5625 C 126.929688 26.257812 123.890625 24.753906 121.046875 23.046875 C 118.203125 21.335938 115.359375 19.234375 112.515625 16.734375 C 107.273438 12.523438 102.519531 7.972656 98.25 3.078125 C 93.988281 -1.816406 85.765625 -11.007812 73.578125 -24.5 C 61.398438 -37.988281 53.316406 -46.953125 49.328125 -51.390625 C 45.347656 -55.828125 42.28125 -58.160156 40.125 -58.390625 L 40.125 -60.09375 C 46.726562 -60.09375 51.140625 -60.234375 53.359375 -60.515625 C 55.578125 -60.804688 57.9375 -61.320312 60.4375 -62.0625 C 62.945312 -62.800781 65.050781 -63.796875 66.75 -65.046875 C 73.46875 -69.367188 76.828125 -76.539062 76.828125 -86.5625 C 76.828125 -94.875 74.976562 -101.53125 71.28125 -106.53125 C 67.582031 -111.539062 62.375 -114.101562 55.65625 -114.21875 L 34.484375 -114.21875 L 34.484375 -12.46875 C 34.484375 -9.613281 35.535156 -7.101562 37.640625 -4.9375 C 39.753906 -2.78125 42.347656 -1.703125 45.421875 -1.703125 L 47.46875 -1.703125 L 47.640625 0 L 10.25 0 L 10.25 -1.703125 L 12.46875 -1.703125 C 15.3125 -1.703125 17.8125 -2.726562 19.96875 -4.78125 C 22.132812 -6.832031 23.273438 -9.335938 23.390625 -12.296875 L 23.390625 -107.046875 C 23.273438 -110.003906 22.164062 -112.535156 20.0625 -114.640625 C 17.957031 -116.753906 15.425781 -117.8125 12.46875 -117.8125 L 10.25 -117.8125 L 10.25 -119.515625 L 56.34375 -119.515625 C 66.351562 -119.515625 74.40625 -116.695312 80.5 -111.0625 C 86.59375 -105.425781 89.640625 -97.96875 89.640625 -88.6875 C 89.640625 -79.414062 86.847656 -71.453125 81.265625 -64.796875 C 75.691406 -58.140625 68.863281 -54.8125 60.78125 -54.8125 C 60.78125 -54.8125 60.722656 -54.8125 60.609375 -54.8125 C 64.484375 -50.707031 68.863281 -45.925781 73.75 -40.46875 C 93.445312 -18.726562 106.082031 -5.070312 111.65625 0.5 C 117.238281 6.082031 122.160156 10.664062 126.421875 14.25 C 130.691406 17.84375 134.476562 20.492188 137.78125 22.203125 C 144.5 25.835938 151.160156 27.65625 157.765625 27.65625 C 159.128906 27.65625 160.492188 27.539062 161.859375 27.3125 Z M 161.859375 29.03125 "/></g></g></g><g clip-path="url(#332b22587a)"><g clip-path="url(#07ed74b035)"><path fill="#000000" d="M 136.425781 179.367188 L 148.835938 179.367188 L 148.835938 191.773438 L 136.425781 191.773438 Z M 136.425781 179.367188 " fill-opacity="1" fill-rule="nonzero"/></g></g><g fill="#ad9551" fill-opacity="1"><g transform="translate(78.346099, 218.639)"><g><path d="M 18.75 -115.65625 C 25.582031 -118.5 32.148438 -119.921875 38.453125 -119.921875 C 43.703125 -119.921875 49.109375 -117.976562 54.671875 -114.09375 C 57.722656 -111.988281 61.140625 -107.890625 64.921875 -101.796875 C 67.441406 -97.597656 70.644531 -89.984375 74.53125 -78.953125 L 93.75 -24.421875 C 98.164062 -12.234375 102.65625 -2.546875 107.21875 4.640625 C 111.789062 11.835938 115.96875 17.25 119.75 20.875 C 123.539062 24.5 127.484375 27.046875 131.578125 28.515625 C 135.671875 29.992188 139.054688 30.734375 141.734375 30.734375 C 144.421875 30.734375 146.8125 30.519531 148.90625 30.09375 L 149.0625 31.671875 C 144.019531 33.347656 139.082031 34.1875 134.25 34.1875 C 129.414062 34.1875 124.582031 32.953125 119.75 30.484375 C 114.925781 28.015625 110.410156 24.578125 106.203125 20.171875 C 97.171875 11.023438 89.503906 -2.894531 83.203125 -21.59375 L 77.046875 -39.546875 L 33.875 -39.546875 L 23 -11.5 C 22.476562 -10.238281 22.21875 -8.976562 22.21875 -7.71875 C 22.21875 -6.457031 22.769531 -5.117188 23.875 -3.703125 C 24.976562 -2.285156 26.6875 -1.578125 29 -1.578125 L 30.25 -1.578125 L 30.25 0 L -1.421875 0 L -1.421875 -1.578125 L 0 -1.578125 C 2.519531 -1.578125 4.988281 -2.335938 7.40625 -3.859375 C 9.820312 -5.378906 11.816406 -7.664062 13.390625 -10.71875 L 52.46875 -104.3125 C 46.800781 -112.40625 39.765625 -116.453125 31.359375 -116.453125 C 27.578125 -116.453125 23.53125 -115.664062 19.21875 -114.09375 Z M 35.609375 -44.28125 L 75.484375 -44.28125 L 63.03125 -81 C 60.613281 -88.03125 58.40625 -93.546875 56.40625 -97.546875 Z M 35.609375 -44.28125 "/></g></g></g></svg>